<?xml version="1.0" encoding="UTF-8"?>
<svg id="Ebene_1" xmlns="http://www.w3.org/2000/svg" version="1.1" viewBox="0 0 33.9 33.9">
  <!-- Generator: Adobe Illustrator 29.8.2, SVG Export Plug-In . SVG Version: 2.1.1 Build 3)  -->
  <defs>
    <style>
      .st0 {
        fill: #fff;
      }
    </style>
  </defs>
  <path class="st0" d="M.37.37v33.16h33.16V.37H.37ZM29.53,29.53H4.37V4.37h25.16s0,25.16,0,25.16Z"/>
  <path class="st0" d="M12.12,18.09v-.02c.05-.22.58-2.4,1.35-4.41.37-.98.81-1.93,1.19-2.51.04.11.07.23.11.37.23.87.36,2.22.44,3.69.12,2.22.13,4.72.46,6.88.18,1.09.41,2.1.94,3.07.27.48.63.95,1.14,1.34.51.39,1.18.65,1.84.7h.25c.45.01.87-.1,1.23-.25.67-.3,1.11-.73,1.47-1.16.63-.76,1.06-1.61,1.46-2.51.58-1.35,1.02-2.8,1.34-3.93.04-.14.07-.27.11-.39h2.42v-4h-5.61l-.34,1.58v.02c-.04.2-.49,2.2-1.16,4.05-.27.77-.59,1.49-.88,2.02-.02-.07-.04-.14-.06-.22-.23-.87-.36-2.21-.44-3.68-.12-2.22-.13-4.72-.46-6.88-.18-1.09-.41-2.11-.94-3.07-.27-.48-.63-.96-1.14-1.34-.5-.39-1.17-.66-1.84-.71h0c-.09,0-.19-.01-.28-.01-.46,0-.89.11-1.26.27-.69.31-1.15.74-1.54,1.19-.68.79-1.16,1.71-1.6,2.67-.65,1.45-1.16,3.01-1.52,4.24-.06.21-.11.4-.17.58h-2.58v4h5.72l.36-1.55Z"/>
</svg>