<?xml version="1.0" encoding="UTF-8"?>
<svg id="Ebene_1" xmlns="http://www.w3.org/2000/svg" version="1.1" viewBox="0 0 16.53 16.53">
  <!-- Generator: Adobe Illustrator 30.0.0, SVG Export Plug-In . SVG Version: 2.1.1 Build 123)  -->
  <defs>
    <style>
      .st0 {
        fill: #fff;
      }
    </style>
  </defs>
  <path class="st0" d="M0,0v16.53h16.53V0H0ZM14.54,14.54H1.99V1.99h12.54v12.54Z"/>
  <polygon class="st0" points="11.21 7.98 9.55 9.88 6.49 6.08 2.77 11.43 1.61 11.43 1.61 13.43 3.82 13.43 6.61 9.42 8.22 11.41 7.51 12.22 9.02 13.53 11.24 10.98 14.65 14.67 15.83 13.03 11.21 7.98"/>
  <path class="st0" d="M10.75,7.45c-1.29,0-2.33-1.05-2.33-2.33s1.05-2.33,2.33-2.33,2.33,1.05,2.33,2.33-1.05,2.33-2.33,2.33ZM10.75,4.78c-.18,0-.33.15-.33.33s.15.33.33.33.33-.15.33-.33-.15-.33-.33-.33Z"/>
</svg>