<?xml version="1.0" encoding="UTF-8"?>
<svg id="Ebene_1" xmlns="http://www.w3.org/2000/svg" version="1.1" viewBox="0 0 33.9 33.9">
  <!-- Generator: Adobe Illustrator 29.8.3, SVG Export Plug-In . SVG Version: 2.1.1 Build 3)  -->
  <defs>
    <style>
      .st0 {
        fill: #1d1d1b;
      }
    </style>
  </defs>
  <path class="st0" d="M16.95,0C7.59,0,0,7.59,0,16.95c0,9.36,7.59,16.95,16.95,16.95,9.36,0,16.95-7.59,16.95-16.95C33.9,7.59,26.31,0,16.95,0ZM26.1,26.1c-2.35,2.35-5.57,3.79-9.16,3.79-3.58,0-6.81-1.45-9.16-3.79-2.35-2.35-3.79-5.57-3.79-9.16,0-3.58,1.45-6.81,3.79-9.16,2.35-2.35,5.57-3.79,9.16-3.79,3.58,0,6.81,1.45,9.16,3.79,2.35,2.35,3.79,5.57,3.79,9.16,0,3.58-1.45,6.81-3.79,9.16Z"/>
  <rect class="st0" x="14.95" y="16.26" width="4" height="9.35"/>
  <path class="st0" d="M16.95,13.38c1.23,0,2.23-1,2.23-2.23s-1-2.23-2.23-2.23-2.23,1-2.23,2.23,1,2.23,2.23,2.23Z"/>
</svg>