<?xml version="1.0" encoding="UTF-8"?>
<svg id="Ebene_1" xmlns="http://www.w3.org/2000/svg" version="1.1" viewBox="0 0 33.9 33.9">
  <!-- Generator: Adobe Illustrator 29.8.2, SVG Export Plug-In . SVG Version: 2.1.1 Build 3)  -->
  <defs>
    <style>
      .st0 {
        fill: #fff;
      }
    </style>
  </defs>
  <path class="st0" d="M.37.37v33.16h33.16V.37H.37ZM29.53,29.53H4.37V4.37h25.16s0,25.16,0,25.16Z"/>
  <path class="st0" d="M17.04,26.62v-4c-1.57,0-2.98-.63-4.01-1.66-1.03-1.03-1.66-2.44-1.66-4.01,0-1.57.63-2.98,1.66-4.01,1.03-1.03,2.44-1.66,4.01-1.66,1.57,0,2.98.63,4.01,1.66.95.95,1.55,2.22,1.64,3.64h-2.42l4.44,7.68,4.44-7.68h-2.45c-.2-5.17-4.44-9.3-9.66-9.3-5.34,0-9.67,4.33-9.67,9.67,0,5.34,4.33,9.67,9.67,9.67Z"/>
</svg>