<?xml version="1.0" encoding="UTF-8"?>
<svg id="Ebene_1" xmlns="http://www.w3.org/2000/svg" version="1.1" viewBox="0 0 33.9 33.9">
  <!-- Generator: Adobe Illustrator 30.0.0, SVG Export Plug-In . SVG Version: 2.1.1 Build 123)  -->
  <defs>
    <style>
      .st0 {
        fill: #1d1d1b;
      }
    </style>
  </defs>
  <path class="st0" d="M16.95,0C7.59,0,0,7.59,0,16.95s7.59,16.95,16.95,16.95,16.95-7.59,16.95-16.95S26.31,0,16.95,0ZM26.1,26.1c-2.35,2.35-5.57,3.79-9.16,3.79s-6.81-1.45-9.16-3.79c-2.35-2.35-3.79-5.57-3.79-9.16s1.45-6.81,3.79-9.16c2.35-2.35,5.57-3.79,9.16-3.79s6.81,1.45,9.16,3.79c2.35,2.35,3.79,5.57,3.79,9.16s-1.45,6.81-3.79,9.16Z"/>
  <g>
    <path class="st0" d="M8.89,17.18l5.93-2.32-2.16-.95c.39-.53.86-.99,1.4-1.34.85-.55,1.85-.84,2.86-.84.71,0,1.42.14,2.11.44,1.58.69,2.65,2.05,3.02,3.61l3.89-.94c-.65-2.72-2.54-5.13-5.31-6.34-1.21-.53-2.47-.78-3.71-.78-1.79,0-3.53.52-5.02,1.48-1.18.76-2.2,1.81-2.95,3.08l-2.37-1.04,2.32,5.93Z"/>
    <path class="st0" d="M27.08,23.11l-2.32-5.93-5.93,2.32,2.16.95c-.39.53-.86.99-1.4,1.34-.85.55-1.85.84-2.86.84-.71,0-1.42-.14-2.11-.44-1.58-.69-2.65-2.05-3.02-3.61l-3.89.94c.65,2.72,2.54,5.13,5.31,6.34,1.21.53,2.47.78,3.71.78,1.79,0,3.53-.52,5.02-1.48,1.18-.76,2.2-1.81,2.95-3.08l2.37,1.04Z"/>
  </g>
</svg>